PathFileType	4	(X/Y/Z)	./resultDataOpenSim/trcMotMarkerGrf/sub09/qtm-04-05.trc
DataRate	CameraRate	NumFrames	NumMarkers	Units	OrigDataRate	OrigDataStartFrame	OrigNumFrames
250.000000	250.000000	12	24	m	250.000000	188	501
Frame#	Time	L.Toe.Tip			R.Toe.Tip			L.Ankle.Lat			R.Ankle.Lat			L.Ankle.Med			R.Ankle.Med			L.Heel			R.Heel			L.Knee.Lat			R.Knee.Lat			L.Knee.Med			R.Knee.Med			L.Thigh.Upper			R.Thigh.Upper			L.ASIS			R.ASIS			V.Sacral			L.Acromium			R.Acromium			C7			L.Elbow			R.Elbow			L.Wrist.Lat			R.Wrist.Lat
		X1	Y1	Z1	X2	Y2	Z2	X3	Y3	Z3	X4	Y4	Z4	X5	Y5	Z5	X6	Y6	Z6	X7	Y7	Z7	X8	Y8	Z8	X9	Y9	Z9	X10	Y10	Z10	X11	Y11	Z11	X12	Y12	Z12	X13	Y13	Z13	X14	Y14	Z14	X15	Y15	Z15	X16	Y16	Z16	X17	Y17	Z17	X18	Y18	Z18	X19	Y19	Z19	X20	Y20	Z20	X21	Y21	Z21	X22	Y22	Z22	X23	Y23	Z23	X24	Y24	Z24

188	0.748	0.19606771	-0.032118653	0.014724989	-0.62249767	0.053840852	0.089265669	0.053046098	-0.0014558336	-0.043662967	-0.69311232	0.18684496	0.12077362	0.061217022	0.016455683	0.053270034	-0.63819952	0.18869104	0.038307284	-0.022569407	-0.037505192	-0.008210351	-0.7359728	0.22169658	0.055654748	0.078251224	0.41462339	-0.091345171	-0.29654073	0.40429228	0.21534183	0.059230742	0.41598299	0.03333676	-0.27972743	0.37374786	0.089894558	-0.11501212	0.78555278	-0.14621539	-0.21532244	0.78587917	0.21742751	-0.058537224	0.87086739	-0.070388312	-0.091867654	0.8633296	0.17062244	-0.2399395	0.91499034	0.0085874966	-0.094551814	1.3181048	-0.13038064	-0.1368147	1.3280973	0.20107106	-0.18139776	1.3741804	0.029595419	-0.26833164	1.0004644	-0.18135674	-0.25299646	0.96427896	0.27801135	-0.20613169	0.75117787	-0.23758287	-0.0070775093	0.83850271	0.23438651
189	0.752	0.19640233	-0.032504774	0.014786658	-0.6189802	0.055801612	0.089810391	0.053511592	-0.0016985345	-0.043602532	-0.68371751	0.19204339	0.12152903	0.061491547	0.016196629	0.053492301	-0.62825923	0.19195366	0.03943909	-0.022344941	-0.037344664	-0.008398447	-0.72506417	0.22843075	0.056235667	0.084315887	0.41333556	-0.091462024	-0.28502483	0.40267904	0.21636089	0.066336573	0.41601798	0.033037051	-0.26742679	0.37097762	0.091315577	-0.10920399	0.78590712	-0.14726778	-0.20771676	0.78460944	0.21715043	-0.051730599	0.87131459	-0.071408123	-0.084618728	0.86241158	0.16971758	-0.23181564	0.91462316	0.0091254812	-0.086656398	1.317915	-0.13045924	-0.12902865	1.3276976	0.20091971	-0.17388189	1.3738045	0.029398852	-0.25960043	1.0000075	-0.18168889	-0.24719367	0.96471373	0.27723197	-0.19729445	0.75065673	-0.23771656	-0.0033978991	0.8349507	0.2355801
190	0.756	0.19652386	-0.03282026	0.014996973	-0.6150839	0.057830198	0.090420552	0.053752438	-0.0019258177	-0.043604996	-0.67373216	0.19716687	0.12234503	0.061445434	0.016007067	0.053668695	-0.6180301	0.19518218	0.04053204	-0.022299904	-0.037270256	-0.0086148235	-0.71376755	0.23506623	0.056878489	0.089766165	0.41184244	-0.091542043	-0.27326445	0.40101657	0.2172151	0.073138378	0.41562326	0.032769286	-0.25499562	0.36833616	0.092541299	-0.10329108	0.78618735	-0.14823576	-0.20029193	0.78338465	0.21684027	-0.044953423	0.87178921	-0.072386145	-0.077498058	0.8615911	0.16884933	-0.223512	0.9145804	0.0098679437	-0.078830427	1.3178259	-0.13053102	-0.12123741	1.3273836	0.20079118	-0.16641515	1.3735634	0.029243128	-0.25085413	0.99957841	-0.18210906	-0.24128766	0.96525864	0.27647251	-0.18831885	0.75021616	-0.23781265	0.00015913801	0.83144111	0.23677568
191	0.76	0.19654997	-0.033074509	0.015273945	-0.6107515	0.059914803	0.091116802	0.053898666	-0.0021329161	-0.043585963	-0.6632734	0.2021544	0.12318935	0.061330928	0.015859192	0.053823173	-0.60761264	0.19842878	0.041540161	-0.022329073	-0.037227911	-0.0087787788	-0.7022335	0.24164635	0.057671202	0.094677421	0.410346	-0.09175515	-0.2612815	0.39929882	0.21801827	0.079633029	0.41481551	0.032528237	-0.24249281	0.36588168	0.093523617	-0.097253603	0.78638581	-0.14904343	-0.19310511	0.782206	0.21658271	-0.038172899	0.87227221	-0.073276774	-0.070486402	0.86088138	0.16804199	-0.21537452	0.9146045	0.010536435	-0.071063815	1.3178229	-0.13058355	-0.11345356	1.3271603	0.20068676	-0.15898029	1.3734669	0.029107088	-0.24213994	0.9991892	-0.1826437	-0.23532705	0.96589447	0.27576873	-0.17920576	0.74985693	-0.23786748	0.0036487307	0.82799067	0.23798584
192	0.764	0.1965932	-0.033279991	0.015516088	-0.60589009	0.062055352	0.091939371	0.054094246	-0.0023298033	-0.04350767	-0.65247667	0.20691128	0.12403947	0.061364948	0.015721727	0.053979817	-0.59696465	0.20168831	0.042470357	-0.022335378	-0.037151349	-0.0088336668	-0.69045179	0.24812487	0.058632917	0.099146672	0.40893967	-0.09213489	-0.24909813	0.39753373	0.2188153	0.085745718	0.41365817	0.032283215	-0.22994317	0.3636569	0.094243433	-0.091121804	0.78650778	-0.14965107	-0.18622247	0.78110129	0.21645396	-0.031388531	0.87274491	-0.074058792	-0.063572705	0.86029608	0.16730391	-0.20764409	0.91449012	0.010935032	-0.06333696	1.3178943	-0.13060652	-0.10567319	1.3270292	0.20060283	-0.1515593	1.3735151	0.028965884	-0.23350069	0.99885573	-0.18327019	-0.22945813	0.96662024	0.27516319	-0.16995576	0.74957575	-0.23786581	0.0071141318	0.82462867	0.23922958
193	0.768	0.19669985	-0.033444774	0.015677887	-0.60037208	0.0642754	0.092939242	0.054402044	-0.002524205	-0.043385086	-0.64143329	0.21137226	0.12491448	0.061606104	0.015586476	0.0541405	-0.58602441	0.20490739	0.043348728	-0.022280215	-0.037014692	-0.0087921528	-0.67823004	0.25432775	0.059677909	0.10327789	0.40760813	-0.092582067	-0.23672489	0.39575742	0.219554	0.091325601	0.41224924	0.031981705	-0.21731097	0.36169695	0.094764846	-0.08493481	0.78658419	-0.15007516	-0.17963365	0.78011878	0.21647127	-0.024630848	0.87319391	-0.074737015	-0.056761885	0.85985056	0.16663573	-0.20058281	0.91445059	0.01132245	-0.055637627	1.3180387	-0.1306012	-0.097912647	1.3269909	0.20053149	-0.14414388	1.3736961	0.028808735	-0.2249416	0.99858289	-0.18390634	-0.22377493	0.96744534	0.27467106	-0.16058338	0.74936666	-0.23780341	0.010574051	0.82138235	0.24051715
194	0.772	0.19684597	-0.033572447	0.015778028	-0.59409228	0.066609538	0.094142504	0.054786579	-0.0027214056	-0.043260333	-0.63018058	0.21554347	0.12584195	0.061964679	0.015464363	0.054281113	-0.57475446	0.20804086	0.044158285	-0.022185208	-0.03683583	-0.008724919	-0.66540814	0.26010868	0.060706637	0.10715014	0.40632784	-0.092975081	-0.22414555	0.39404075	0.22011131	0.09624977	0.41071762	0.03159064	-0.2045496	0.3600369	0.095195943	-0.078708355	0.78666442	-0.1503786	-0.17317426	0.77931196	0.21653964	-0.017927428	0.87362034	-0.075324556	-0.050066884	0.85956091	0.16603805	-0.19404829	0.91487318	0.012196164	-0.047972617	1.3182652	-0.13057886	-0.090227609	1.3270538	0.20046766	-0.13673783	1.3739871	0.0286349	-0.21643767	0.99836688	-0.18447391	-0.21818029	0.96836169	0.27426816	-0.1511141	0.74922988	-0.23769136	0.014005989	0.81826165	0.24184049
195	0.776	0.19697659	-0.03366733	0.015849178	-0.58698869	0.069096003	0.095527257	0.055160449	-0.0029240387	-0.043177946	-0.61871289	0.21949508	0.1268174	0.062295638	0.015368983	0.054372118	-0.5631261	0.21109639	0.044824441	-0.022099737	-0.036654616	-0.0087020753	-0.65207663	0.2654888	0.061683552	0.11077412	0.40512762	-0.093244792	-0.21133595	0.39246254	0.22037471	0.10056193	0.40923182	0.031151317	-0.19169279	0.35871371	0.095590711	-0.072425195	0.78680501	-0.15064306	-0.16653978	0.77871672	0.21646454	-0.011284289	0.87403853	-0.075831386	-0.043493974	0.85944359	0.16551088	-0.18755233	0.91589113	0.01382347	-0.040360863	1.3185846	-0.13055293	-0.082675915	1.327236	0.20041241	-0.12934862	1.3743776	0.028445323	-0.20797418	0.99820579	-0.18497186	-0.21251846	0.96934226	0.27391444	-0.14156781	0.74917519	-0.23754141	0.017371623	0.81526507	0.24318123
196	0.78	0.19704956	-0.033738428	0.015901971	-0.57893004	0.071806393	0.09705466	0.055450724	-0.0031296513	-0.043162921	-0.60698671	0.2233284	0.12778798	0.062498701	0.015305199	0.054403548	-0.55117319	0.21415648	0.045295699	-0.022062322	-0.036505512	-0.0087485362	-0.63856552	0.27056619	0.062603682	0.11408646	0.40408582	-0.093391895	-0.19830457	0.39106671	0.22034012	0.10441658	0.40795751	0.03074798	-0.17888591	0.35779157	0.095908916	-0.066054584	0.7870597	-0.1509276	-0.15944015	0.7783059	0.2160713	-0.0046888419	0.87446472	-0.076263797	-0.037039483	0.85951189	0.16504994	-0.18085036	0.91728276	0.015831238	-0.032812576	1.3190006	-0.13053152	-0.075274477	1.327551	0.20036699	-0.12198067	1.3748842	0.028243939	-0.19955483	0.99810532	-0.18544403	-0.20676423	0.97036629	0.27358579	-0.13195186	0.7492124	-0.23735934	0.02065097	0.81238959	0.2445231
197	0.784	0.19705736	-0.033796838	0.015937266	-0.56963651	0.074849076	0.098722307	0.055639484	-0.0033299709	-0.043207635	-0.59494308	0.22714148	0.12862921	0.062556908	0.015271082	0.054393856	-0.53903375	0.21735294	0.045616053	-0.02207878	-0.036398494	-0.0088470749	-0.62527459	0.27538025	0.063460784	0.11702502	0.40330651	-0.093504516	-0.18509462	0.38985585	0.22011822	0.10789725	0.40698202	0.030424649	-0.16631366	0.35736797	0.09608386	-0.059574745	0.78746247	-0.15123924	-0.15183546	0.7779905	0.2153734	0.0018845814	0.87491293	-0.076621197	-0.030694533	0.85976734	0.16464738	-0.17408017	0.91870956	0.017399421	-0.025320022	1.319507	-0.13051451	-0.068007698	1.327996	0.20032808	-0.11464377	1.3755335	0.028040998	-0.19118304	0.99807824	-0.18591093	-0.2009422	0.97143553	0.2733067	-0.12226604	0.7493442	-0.2371478	0.02385107	0.80963339	0.24585824
198	0.788	0.19702478	-0.03385055	0.015964675	-0.55890159	0.078256769	0.10055372	0.055761725	-0.0035115533	-0.043280975	-0.58254973	0.23100413	0.12911895	0.062514449	0.015265432	0.054374539	-0.52682576	0.22077049	0.045853978	-0.02212516	-0.036318552	-0.0089655045	-0.61244147	0.27989309	0.064266085	0.11967037	0.40285963	-0.09376759	-0.17174205	0.38882696	0.21983086	0.11098897	0.40630142	0.030177781	-0.15402148	0.35746873	0.096083246	-0.052981306	0.78802029	-0.15154529	-0.1440381	0.77772396	0.21462518	0.0084520646	0.87540029	-0.076895958	-0.024445945	0.86019722	0.16429767	-0.16750993	0.92005937	0.018212183	-0.017867426	1.3200943	-0.1304948	-0.060861952	1.3285612	0.20029137	-0.10735625	1.3763368	0.027849323	-0.18286147	0.99814016	-0.18637833	-0.19501599	0.97256825	0.27315807	-0.11250974	0.74957077	-0.23690869	0.026985442	0.80700359	0.24718448
199	0.792	0.19699136	-0.033902662	0.015995982	-0.54688645	0.081878406	0.10252569	0.055873225	-0.0036587212	-0.043350829	-0.56981478	0.23493001	0.1290456	0.062445235	0.015287826	0.054365232	-0.5145149	0.22436627	0.046024636	-0.022167894	-0.036239866	-0.0090739528	-0.59995662	0.28401353	0.064977204	0.12228059	0.40268853	-0.094334295	-0.15825228	0.38800311	0.2195189	0.11366362	0.40585965	0.029992178	-0.14177373	0.35794931	0.095870587	-0.046284878	0.78873201	-0.15181621	-0.13645306	0.77756104	0.21411141	0.014980047	0.87594634	-0.077089018	-0.018280628	0.86078736	0.16399987	-0.1612338	0.92142903	0.018661324	-0.010438646	1.3207604	-0.13046063	-0.053840447	1.3292491	0.20025299	-0.10012757	1.3772774	0.027672677	-0.17459348	0.99830165	-0.18685697	-0.18895854	0.97378862	0.27319607	-0.10268627	0.74989665	-0.23664548	0.030052583	0.8045205	0.24850025
